#!OML:ASF H:\Pregnant\Project 1\Capture day 1\Session 1\femalepreg.ASF
:FULLY-SPECIFIED
:DEGREES
1252
root 6.05336 15.6662 26.8191 542.467 -83.6049 -530.063
lowerback -22.3675 0.863272 1.21865
upperback -3.95978 0.505686 0.310273
thorax 8.1571 0.139144 -0.231742
lowerneck -15.2137 8.50953 9.14335
upperneck 32.281 10.7346 -5.02447
head 14.4574 4.79311 -1.82389
rclavicle 4.38569e-015 -1.44119e-015
rhumerus -43.5868 34.1312 -101.533
rradius 115.051
rwrist -24.5791
rhand 18.073 -14.1316
rfingers 7.12502
rthumb 42.7359 -38.4702
lclavicle 4.38569e-015 -1.44119e-015
lhumerus -41.7827 -33.025 98.1245
lradius 112.821
lwrist 36.7884
lhand 31.3485 -6.42495
lfingers 7.12502
lthumb 54.9151 -348.225
rfemur -20.0509 21.9606 12.4584
rtibia 25.9509
rfoot -13.9639 -23.007
rtoes -12.407
lfemur -8.7554 -12.6548 -13.6209
ltibia 1.51076e-014
lfoot -0.96277 16.335
ltoes -13.0302
1253
root 6.05574 15.6672 26.814 542.345 -83.6215 -529.896
lowerback -22.4055 0.861177 1.21128
upperback -3.94662 0.504485 0.308678
thorax 8.19156 0.138736 -0.229281
lowerneck -15.2018 8.49498 9.16806
upperneck 32.2311 10.7023 -5.01568
head 14.4303 4.78557 -1.83028
rclavicle 1.48467e-015 1.49089e-015
rhumerus -43.5817 34.1393 -101.559
rradius 115.034
rwrist -24.4721
rhand 18.0451 -14.1495
rfingers 7.12502
rthumb 42.7098 -38.4972
lclavicle 1.48467e-015 1.49089e-015
lhumerus -41.7788 -32.875 98.1281
lradius 112.821
lwrist 36.7807
lhand 31.5067 -6.36874
lfingers 7.12502
lthumb 55.0562 -348.271
rfemur -20.0972 21.9668 12.4763
rtibia 25.9356
rfoot -13.951 -23.0251
rtoes -12.3786
lfemur -8.81058 -12.6591 -13.5674
ltibia -1.27222e-014
lfoot -0.961158 16.3374
ltoes -12.9933
1254
root 6.05796 15.6684 26.8089 542.208 -83.6361 -529.715
lowerback -22.4461 0.866516 1.21574
upperback -3.9341 0.510923 0.298486
thorax 8.22702 0.142369 -0.240753
lowerneck -15.1853 8.47772 9.18704
upperneck 32.1804 10.6633 -4.9932
head 14.4 4.77639 -1.83162
rclavicle -1.32782e-014 -6.43565e-015
rhumerus -43.5709 34.1294 -101.59
rradius 115.016
rwrist -24.3718
rhand 18.013 -14.1532
rfingers 7.12502
rthumb 42.6797 -38.5113
lclavicle -1.32782e-014 -6.43565e-015
lhumerus -41.7758 -32.7445 98.1277
lradius 112.822
lwrist 36.7614
lhand 31.6466 -6.3365
lfingers 7.12502
lthumb 55.1809 -348.329
rfemur -20.1424 21.9979 12.4919
rtibia 25.9187
rfoot -13.9438 -23.0583
rtoes -12.3137
lfemur -8.86667 -12.6616 -13.513
ltibia -5.56597e-015
lfoot -0.951965 16.3383
ltoes -12.9952
1255
root 6.06009 15.6695 26.8039 542.055 -83.6496 -529.518
lowerback -22.4871 0.87656 1.22884
upperback -3.92352 0.521826 0.283178
thorax 8.26074 0.148362 -0.261473
lowerneck -15.169 8.45835 9.20162
upperneck 32.1367 10.6195 -4.96218
head 14.3714 4.76551 -1.82974
rclavicle -1.76173e-014 -2.48481e-017
rhumerus -43.5582 34.1103 -101.621
rradius 115
rwrist -24.2874
rhand 17.9814 -14.1605
rfingers 7.12502
rthumb 42.6502 -38.5289
lclavicle -1.76173e-014 -2.48481e-017
lhumerus -41.7736 -32.6246 98.124
lradius 112.823
lwrist 36.737
lhand 31.7836 -6.31371
lfingers 7.12502
lthumb 55.3029 -348.396
rfemur -20.1868 22.0242 12.5094
rtibia 25.8999
rfoot -13.9382 -23.0838
rtoes -12.2465
lfemur -8.92155 -12.663 -13.4573
ltibia -3.4191e-014
lfoot -0.943653 16.3395
ltoes -12.9946
1256
root 6.06222 15.6706 26.7991 541.885 -83.6629 -529.303
lowerback -22.5274 0.888353 1.24712
upperback -3.91553 0.533672 0.267514
thorax 8.29133 0.154858 -0.285292
lowerneck -15.1529 8.43842 9.2021
upperneck 32.0996 10.5756 -4.92082
head 14.3441 4.75403 -1.82145
rclavicle -1.99188e-014 -6.03808e-015
rhumerus -43.544 34.0899 -101.648
rradius 114.986
rwrist -24.2225
rhand 17.949 -14.1719
rfingers 7.12502
rthumb 42.6198 -38.5508
lclavicle -1.99188e-014 -6.03808e-015
lhumerus -41.773 -32.5119 98.1201
lradius 112.827
lwrist 36.7199
lhand 31.9082 -6.28772
lfingers 7.12502
lthumb 55.4138 -348.453
rfemur -20.2307 22.061 12.5262
rtibia 25.8777
rfoot -13.9345 -23.1149
rtoes -12.1586
lfemur -8.97744 -12.6641 -13.4002
ltibia -7.95139e-015
lfoot -0.931663 16.3399
ltoes -13.0127
1257
root 6.06435 15.6718 26.7945 541.703 -83.6756 -529.076
lowerback -22.565 0.899749 1.26648
upperback -3.91049 0.544377 0.254446
thorax 8.31724 0.160706 -0.30726
lowerneck -15.1438 8.41814 9.19336
upperneck 32.0778 10.5322 -4.87508
head 14.3243 4.74155 -1.80971
rclavicle 6.98852e-017 2.29845e-016
rhumerus -43.5316 34.0748 -101.669
rradius 114.976
rwrist -24.1776
rhand 17.9104 -14.1862
rfingers 7.12502
rthumb 42.5837 -38.5776
lclavicle 6.98852e-017 2.29845e-016
lhumerus -41.7739 -32.4018 98.1179
lradius 112.834
lwrist 36.7163
lhand 32.0238 -6.24958
lfingers 7.12502
lthumb 55.5166 -348.491
rfemur -20.2731 22.1015 12.5436
rtibia 25.8524
rfoot -13.9284 -23.1495
rtoes -12.0718
lfemur -9.03548 -12.6645 -13.3418
ltibia 3.02153e-014
lfoot -0.917949 16.3419
ltoes -13.0276
